<svg width="121" height="28" viewBox="0 0 121 28" fill="none" xmlns="http://www.w3.org/2000/svg">
<path d="M37.548 7.4V20H39.96V7.4H37.548ZM48.756 10.28C47.19 10.298 45.984 10.892 45.3 12.17V10.37H42.96V20H45.3V15.266C45.3 13.682 46.236 12.512 47.82 12.494C49.152 12.494 49.962 13.322 49.962 14.672V20H52.32V13.988C52.32 11.702 50.97 10.28 48.756 10.28ZM60.0422 17.642C59.5202 17.894 59.0702 18.038 58.6742 18.038C58.0442 18.038 57.6662 17.732 57.6662 16.814V12.476H60.4202V10.766H57.6662V8.12H55.3442V10.766H53.9762L53.9942 12.476H55.3442V17.228C55.3442 19.208 56.6042 20.108 58.1702 20.108C59.0162 20.108 59.8442 19.856 60.5822 19.406L60.0422 17.642ZM66.345 10.298C63.465 10.298 61.449 12.278 61.449 15.212C61.449 18.11 63.411 20.09 66.399 20.09C68.091 20.09 69.495 19.478 70.449 18.434L69.189 17.12C68.505 17.822 67.587 18.2 66.597 18.2C65.193 18.2 64.149 17.372 63.843 16.004H70.953C71.187 12.512 69.729 10.298 66.345 10.298ZM63.789 14.438C64.005 13.016 64.977 12.116 66.363 12.116C67.821 12.116 68.775 13.016 68.829 14.438H63.789ZM75.3234 12.224V10.37H72.9834V20H75.3234V15.356C75.3234 13.61 76.5654 12.422 78.5994 12.548V10.28C77.1054 10.298 75.9714 10.964 75.3234 12.224ZM79.2242 10.388L82.9322 20H85.3442L89.0162 10.37H86.6582L84.1922 17.696L81.6722 10.37L79.2242 10.388ZM91.5382 6.32C90.8002 6.32 90.2782 6.86 90.2782 7.616C90.2782 8.372 90.8002 8.912 91.5382 8.912C92.2762 8.912 92.7982 8.372 92.7982 7.616C92.7982 6.86 92.2762 6.32 91.5382 6.32ZM90.3682 10.37V20H92.7082V10.37H90.3682ZM99.6204 10.298C96.7404 10.298 94.7244 12.278 94.7244 15.212C94.7244 18.11 96.6864 20.09 99.6744 20.09C101.366 20.09 102.77 19.478 103.724 18.434L102.464 17.12C101.78 17.822 100.862 18.2 99.8724 18.2C98.4684 18.2 97.4244 17.372 97.1184 16.004H104.228C104.462 12.512 103.004 10.298 99.6204 10.298ZM97.0644 14.438C97.2804 13.016 98.2524 12.116 99.6384 12.116C101.096 12.116 102.05 13.016 102.104 14.438H97.0644ZM104.449 10.388L107.977 20H110.371L112.657 13.214L114.961 20H117.355L120.847 10.37H118.489L116.185 17.642L113.863 10.37H111.505L109.219 17.642L106.861 10.37L104.449 10.388Z" fill="#18191A"/>
<mask id="mask0_1930_30797" style="mask-type:alpha" maskUnits="userSpaceOnUse" x="0" y="0" width="28" height="28">
<rect width="28" height="28" fill="#D9D9D9"/>
</mask>
<g mask="url(#mask0_1930_30797)">
<path d="M14 26.833L10.5 23.333H5.4544C4.9294 23.333 4.4723 23.1386 4.0831 22.7499C3.69437 22.3612 3.5 21.9043 3.5 21.3793V4.28741C3.5 3.76241 3.69437 3.30554 4.0831 2.91681C4.4723 2.52761 4.9294 2.33301 5.4544 2.33301H22.5456C23.0706 2.33301 23.5277 2.52761 23.9169 2.91681C24.3056 3.30554 24.5 3.76241 24.5 4.28741V21.3793C24.5 21.9043 24.3056 22.3612 23.9169 22.7499C23.5277 23.1386 23.0706 23.333 22.5456 23.333H17.5L14 26.833ZM15.7206 14.583L19.5419 12.8918L15.7206 11.1999L14.0294 7.37931L12.3081 11.1999L8.4875 12.8918L12.3081 14.583L14.0294 18.4043L15.7206 14.583Z" fill="url(#paint0_linear_1930_30797)"/>
</g>
<defs>
<linearGradient id="paint0_linear_1930_30797" x1="14" y1="2.33301" x2="14" y2="26.833" gradientUnits="userSpaceOnUse">
<stop stop-color="#2C73FF"/>
<stop offset="0.0001" stop-color="#0B8AE6"/>
<stop offset="1" stop-color="#36A7F9"/>
</linearGradient>
</defs>
</svg>
